<svg xmlns="http://www.w3.org/2000/svg" viewBox="0 0 374.57 471.93"><g id="Stripes"><path d="M100.69,259h362.8s11.83,166.5-179.74,254.48C283.75,513.47,110.15,456.23,100.69,259Z" transform="translate(-96.18 -48.86)" fill="#fff"/><path d="M299.83,263.62V511.73a358,358,0,0,0,32.72-18.23V263.62Z" transform="translate(-96.18 -48.86)" fill="#ef7d00"/><path d="M365.28,263.62V469.25A327,327,0,0,0,398,439.78V263.62Z" transform="translate(-96.18 -48.86)" fill="#ef7d00"/><path d="M430.74,263.62V397c3.62-5.45,7.08-11.11,10.33-17,7.69-13.89,16.41-35.7,22.39-59.72V263.62Z" transform="translate(-96.18 -48.86)" fill="#ef7d00"/><path d="M168.75,263.62v176a324.15,324.15,0,0,0,32.73,29.51V263.62Z" transform="translate(-96.18 -48.86)" fill="#ef7d00"/><path d="M234.21,263.62V494.18a361.41,361.41,0,0,0,32.72,18.31V263.62Z" transform="translate(-96.18 -48.86)" fill="#ef7d00"/><path d="M103.3,263.62V319c6,24.06,14.8,45.93,22.56,59.81q4.8,8.59,10.16,16.58V263.62Z" transform="translate(-96.18 -48.86)" fill="#ef7d00"/><path d="M376.78,61.24c31.6,4.91,62,8,78.77,9.49-28.09-7.46-92.63-21.87-172.09-21.87s-144,14.41-172.08,21.87c16.74-1.5,47.17-4.58,78.77-9.49C244.22,52.83,322.71,52.83,376.78,61.24Z" transform="translate(-96.18 -48.86)" fill="none"/><path d="M228.91,480.26a333.52,333.52,0,0,0,54.55,30.29A333.46,333.46,0,0,0,338,480.26c28.79-19.56,68.53-53,94.39-101.11,11.42-21.25,28.4-68.6,28.4-111.95v-181c-14.5-1.22-49.64-4.47-86.33-10.18-52.74-8.21-129.29-8.21-182,0-36.69,5.71-71.83,9-86.33,10.18v181c0,43.36,17,90.7,28.4,112C160.38,427.29,200.12,460.7,228.91,480.26Z" transform="translate(-96.18 -48.86)" fill="none"/><path d="M96.55,265.46c0,43.16,16,92.28,29.31,117,52.29,97.33,157.6,137.75,157.6,137.75s105.32-40.42,157.61-137.75c13.3-24.74,28.57-73.73,28.57-116.89l.68-188.94s-4.89-1-14.71-3.62c-16.75-1.5-47.23-6.88-78.83-11.79-54.07-8.41-132.56-8.41-186.63,0-31.6,4.91-62.83,10.73-79.58,12.23C100.75,76.07,97,77.34,97,77.34Zm9.57-179.22c14.5-1.22,49.64-4.47,86.33-10.18,52.74-8.21,129.29-8.21,182,0,36.69,5.71,71.83,9,86.33,10.18v181c0,43.35-17,90.7-28.4,112-25.86,48.14-65.6,81.55-94.39,101.11a333.46,333.46,0,0,1-54.56,30.29,333.52,333.52,0,0,1-54.55-30.29c-28.79-19.56-68.53-53-94.39-101.11-11.42-21.25-28.4-68.59-28.4-111.95Z" transform="translate(-96.18 -48.86)" fill="#fff"/><path d="M283.46,49.86c-107.22,0-187.28,26.23-187.28,26.23V263.62H470.75V76.09S390.69,49.86,283.46,49.86Z" transform="translate(-96.18 -48.86)" fill="#0075bf"/><path d="M98.23,78.39V266.67c0,42.68,16.2,91.27,29.35,115.74,51.73,96.26,155.88,136.24,155.88,136.24s104.16-40,155.89-136.24c13.15-24.47,29.35-73.06,29.35-115.74V78.39S389.51,52.44,283.46,52.44,98.23,78.39,98.23,78.39Z" transform="translate(-96.18 -48.86)" fill="none" stroke="#0075bf" stroke-miterlimit="10" stroke-width="4"/></g><g id="Basilisk"><path d="M225.05,247.76l5.24-5.47-1.09-24.58V177.35l2.5-5,4.65-8.61,1.91-2.9,16.9,4L268.81,176l9.35,7.19,2.18,3.45,1.78,15.87-4.73,34.41,16.68,10.85,16.59-10.49,9.24-7.36,3.33-.73,6.27-2.82,15.77,25,2.66,30-18.43,66.5-6.27,2.32h0s-3.17,6.91-4.12,10.13-22,23.21-22,23.21l-.64-.72-19.1-5.32H246.82L222.7,354.61l-18.27-18.45L193.78,293.8Z" transform="translate(-96.18 -48.86)" fill="#1d1d1b"/><path d="M315.51,256.71s9.24-5.26,16.41-1.38" transform="translate(-96.18 -48.86)" fill="none" stroke="#1d1d1b" stroke-miterlimit="10" stroke-width="0.5"/><path d="M230,242.29s-10.11,9.66-12.33,18.07" transform="translate(-96.18 -48.86)" fill="none" stroke="#1d1d1b" stroke-miterlimit="10" stroke-width="0.5"/><path d="M323.23,229.18s3.29-3.21,4.8-10.39-.72-14.1,1.51-15.58,3-2.48,6.43-6.68,27-30.19,41.57-41.57,59.38-36.37,61.61-38.85,4.21-4.7,6.68-4.7,9.4-4.2,15.09-2c0,0-9.65,7.43-10.88,11.14s-5.2,30.93-6.68,47.25-5.45,44.54-5.94,52-.75,26.35,8.66,39.4,12.62,13.55,14.84,16,6,5.06,4,11.62c0,0-.74-3.18-4.95-3.32,0,0-11.87,3.32-17.56,8.27s-19.8,18.56-22.77,54.93c0,0-.74,5.69,1.73,10.39s3,7.67,2,9.9c0,0-2-5.2-6.68-6.68a6.5,6.5,0,0,1-5.69-1.73c-2.47-2.48-20.29-9.65-30.43-8.91s-21,9.65-21.53,15.09,1.49,6.93,1,10.64,2,5.69,1.24,10.64a10.23,10.23,0,0,0-6.18-6.68c-4.95-1.73-5.2-6.19-6.19-7.92s-8.07-17.21-25.57-21.26" transform="translate(-96.18 -48.86)" fill="#1d1d1b" stroke="#1d1d1b" stroke-miterlimit="10" stroke-width="0.5"/><path d="M208.43,374.89s-8.89-5-12.8-5-10.51,3.3-11.72,6-5.4,1.81-7.51,2.71-4.5,7.42-4.5,7.42c-.9-7.9,1.5-9.53,2.1-12.23s4.81-4.81,4.51-14.72S174.6,329.36,168.29,321s-19.52-9.92-21.63-8.71-4.8.6-7.21-.31-9.61,3-9.61,3c1.5-4.21,5.71-5.41,6.31-6.72s2.7-2.89,5.71-3.5,7.51-15.32,9-32.39-4.21-28-7.81-46.61-20.73-61.29-22.23-63.39-1.51-.3-2.11-3.91-11.71-7.8-11.71-7.8c7.51-2.7,8.71-.91,11.71-1.51s4.51,1.8,7.81,3,27,12.32,46.57,25.84,35.32,28.38,40.44,45.22c3.36,11.06,16.5,19.12,16.5,19.12" transform="translate(-96.18 -48.86)" fill="#1d1d1b" stroke="#1d1d1b" stroke-miterlimit="10" stroke-width="0.5"/><path d="M447.19,111.41s-1.34,6.15,4.77,6.2" transform="translate(-96.18 -48.86)" fill="none" stroke="#1d1d1b" stroke-miterlimit="10" stroke-width="0.5"/><path d="M459.93,283.51s-1.69-5.08,3.25-5.53" transform="translate(-96.18 -48.86)" fill="none" stroke="#1d1d1b" stroke-miterlimit="10" stroke-width="0.5"/><path d="M416.63,360.32s.66-4.18,4.7-3.22" transform="translate(-96.18 -48.86)" fill="none" stroke="#1d1d1b" stroke-miterlimit="10" stroke-width="0.5"/><path d="M356.65,380.12s.18-3.67,3.39-2.34" transform="translate(-96.18 -48.86)" fill="none" stroke="#1d1d1b" stroke-miterlimit="10" stroke-width="0.5"/><path d="M176.4,378.63s2-3.78-2.4-4.81" transform="translate(-96.18 -48.86)" fill="none" stroke="#1d1d1b" stroke-miterlimit="10" stroke-width="0.5"/><path d="M137.91,311.85s3.06-1.49-1.76-3.63" transform="translate(-96.18 -48.86)" fill="none" stroke="#1d1d1b" stroke-miterlimit="10" stroke-width="0.5"/><path d="M117.89,156.86a6.3,6.3,0,0,0,.83-7.75" transform="translate(-96.18 -48.86)" fill="none" stroke="#1d1d1b" stroke-miterlimit="10" stroke-width="0.5"/><path d="M279.32,184.83s-.55-2.31-3.72-8.48a32.05,32.05,0,0,0-13.88-13.69,20.35,20.35,0,0,0-1.73-5.15c-1.11-1.95-2.45.14-2.45.14s-1.48-4-2.6-5.13-3,1.23-3,1.23a5.21,5.21,0,0,0-2.87-2.87c-1.95-.56-3.53,2.31-3.53,2.31s-1.82-2-3.25,1.33c-1.83,4.29-2.47,4.47-2.47,4.47-1.53-.4-2.41,1.68-2.45,4.06,0,2,.93,11.85.93,11.85s-2.61-4.89-4.56-4.89-1.28,10.46-1.28,10.46c-2.51-3.62-2.23,2.78-1.39,5.85l1,3.58a1.94,1.94,0,0,0,.78,1c1.28.91,4,6.78,5.21,9.88,1.39,3.62.27,6.68,2.5,4.18s5,5,7.52,10.57,3.06,4.74,3.06,4.74,0-10.3,3.62-8.35,8,11.16,9.18,10.41c4.46-2.82-10.37-32.44.28-33.24,3.11-.23,4.78,2.75,8.4,3.3s2.68-1.78,5.29-5.89c3.42-5.38,7-.94,7.47,4,.32,3.61,3.62,1.95,4.73.56s3.06-7,5.29-6.4,1.39,6.4,2.5,9.46,4.74,0,7.52-2.23,3.9-1.11,3.06,4.46.56,9.46,6.68,5.84,5,.28,3.06,5.29-4.41,6.26,0,5.15,6.2-.35,5,2.31c-1.05,2.27-8,6-7.72,10.49s12.65,5.75,19.95,11c10.15,7.24,3.3,26,3.3,26,.29.65-4.82-4.6-10.73-9.29-3.53-2.8-7.64-5.16-18.26-4.19s-12.48-1.48-12.65,4.16c-.21,7.21,32.42,22.48,33.05,22.56,0,0-2.69,3.18-8.74,1.84-2.14-.47-13.17-4.48-17.26-5.11a2.89,2.89,0,0,0-1.17,0,80.57,80.57,0,0,1-15-2.95c-7.57-2.33-10.18-7.21-16.16-8.75,0,0-.51-.13-.9-.27-2-.71-16.56-.7-24.05-4.08S228,244.21,224.65,230.69s-4.59-28.5,0-42S235.27,165.79,237.4,162" transform="translate(-96.18 -48.86)" fill="#1d1d1b"/><path d="M318.27,257.29s12.45,13,11.9,18.31" transform="translate(-96.18 -48.86)" fill="none" stroke="#1d1d1b" stroke-miterlimit="10" stroke-width="0.5"/><path d="M182.61,251.33c-2.53-15.2-8-38.83-18.56-54s-24.9-27.84-32.91-32.49" transform="translate(-96.18 -48.86)" fill="none" stroke="#1d1d1b" stroke-miterlimit="10" stroke-width="0.5"/><path d="M206.79,308.22a32.77,32.77,0,0,1-7.73-9.2" transform="translate(-96.18 -48.86)" fill="none" stroke="#1d1d1b" stroke-miterlimit="10" stroke-width="0.5"/><path d="M263.94,222.34s-9.34,3.72-20.71-4.63-11.16-27.81-11.16-27.81" transform="translate(-96.18 -48.86)" fill="none" stroke="#1d1d1b" stroke-miterlimit="10" stroke-width="0.5"/><path d="M279.34,226s13,1.53,22.22,7.55c0,0-7.37,1.95-10.14,1.63-1.93-.23-6.36-3-8.54-4.87A13.2,13.2,0,0,1,279.34,226Z" transform="translate(-96.18 -48.86)" fill="#fff"/></g><g id="Ball"><circle cx="160.34" cy="290.76" r="61.65" fill="#fff"/><path d="M216.74,297.93a25.74,25.74,0,0,0-5.42,18.87,61.86,61.86,0,0,0-5.18,21.93s-7.43,5.61-9.57,12c0,0,7.18-7.2,11.16-7.2,0,0,6.38,6.78,9.57,10,0,0,.8,15.94,8.37,24.31,0,0-5.18-13.15-3.19-22.72,0,0,13.55-13.95,20.33-17.74,0,0-4.38-13.35-5.18-21.72,0,0,9.33-11.57,14.91-15.95,0,0-13.25,6.48-18.43,11.67,0,0-12,.26-19,1.46C215.15,312.79,214.09,308.94,216.74,297.93Z" transform="translate(-96.18 -48.86)" fill="#1d1d1b"/><path d="M257.05,277.78s.93,11,2.39,15.38c0,0,18.16,3.45,24.39,8.88a53,53,0,0,1,7.83,20.56s.53-13.66-2.12-21.48l8.08-7.56S286.62,279.11,257.05,277.78Z" transform="translate(-96.18 -48.86)" fill="#1d1d1b"/><path d="M273.62,350.84S252.67,338,248.3,336c0,0,17.77,4.11,25.32,6.76l18.83-16.17s11.8,9.14,15.38,14.32c0,0,6.77-2.13,9-9,0,0-.66,11.93-8.22,16,0,0-3.71,14.85-5.7,18.7,0,0,1.06,11.4-2.65,16.71A35.07,35.07,0,0,0,299,370.07L276,371S275.61,355.75,273.62,350.84Z" transform="translate(-96.18 -48.86)" fill="#1d1d1b"/><path d="M216.33,387.24l9.93-7.95s12.86,6.49,22,7c0,0,15.76-5.7,24.11-9.94,0,0-11.53,10.07-16.16,12.32l.26,13.12S233.15,401.81,216.33,387.24Z" transform="translate(-96.18 -48.86)" fill="#1d1d1b"/></g><g id="Fuesse"><path d="M226,277.55s-9.14,1.44-10.78,6.33c-2,5.87-4.56,14.12-3.23,15.2,0,0-.87,3,1,9.73,0,0,.74-7.57,3.35-7.83s2.16.22,3.53-2a33.26,33.26,0,0,0,2.14-6.12s.81-4.59,1.94-5.39a63.44,63.44,0,0,1,6.16-2.92l6.64-5.27S233.6,276.51,226,277.55Z" transform="translate(-96.18 -48.86)" fill="#1d1d1b"/><path d="M309.41,370.94a172,172,0,0,1-11.64,14.46s-1.15.41-1.66.54-5.73,1.17-18.65.11c-4.55-.38-11.44-1.43-19.42-2.72-6.6-1.08-22.32-4.52-33.48,7.62-10.68,11.61-9.49,27.67,0,38.63,5.22,6,24.14,15.58,43.34,15.6,10.5,0,31-.54,38.59.53,10.28,1.45,19.56,9.86,19.56,9.86l-4.65,1.73,17.36,14.16-2.13-23.76-5.34,4.92S324.61,440.57,314,436c-8.86-3.81-16.75-4.08-29.94-4.54-14.07-.49-38.57-9.79-34.78-17.57,6.12-12.56,42.76,2.53,62.06,1.51,22.61-1.2,29.78-13.35,29.11-29.38-.48-11.76-7.67-17-13-27.41-3.77-7.34,2.68-13.12,2.68-13.12l-10.25,1.93S313.73,364.51,309.41,370.94Z" transform="translate(-96.18 -48.86)" fill="#1d1d1b"/><path d="M245.77,282.13a15.28,15.28,0,0,0-3.28,4.15c-.91,2.06-3.13,6-3.44,10s-1.8,4.69-3.37,5.32a4.28,4.28,0,0,1-2.77.22c-2.39,2.7-4.94,11.38-4.94,11.38-2.92-8.83-1.05-14-1.05-14a9,9,0,0,1-1-2.39c-.64-1.89,1.7-8,3.9-14.42s9.18-9.13,17-9.71c6.44-.48,11.87.14,13.67,0s.23,2.37.23,2.37" transform="translate(-96.18 -48.86)" fill="#1d1d1b"/><path d="M249.22,275.21s-6.88,2.17-6.5,7.93a96.32,96.32,0,0,1,.2,14c-.41,5.11,1.72,5.88,1.72,5.88a18.71,18.71,0,0,0,4.58,13.66s.27-11.38,2.16-13.26c0,0,3-.7,2.86-3,0,0-1.05-13.27-1.28-17s.1-3.8,3-6.54" transform="translate(-96.18 -48.86)" fill="#1d1d1b"/></g><g id="Konturen"><circle cx="194.98" cy="181.7" r="3.08" fill="#1d1d1b"/><circle cx="195.98" cy="181.7" r="0.66" fill="#fff"/><path d="M312.51,240s0-.2.08-.56a8.29,8.29,0,0,1,.35-1.47,2.22,2.22,0,0,1,.55-.91,2.91,2.91,0,0,1,1.16-.24,12,12,0,0,1,2.46,0,3.55,3.55,0,0,1,.64.17,1.21,1.21,0,0,1,.33.21.57.57,0,0,1,.12.22c0,.05,0,0,0,.12v0l0,.07a1.11,1.11,0,0,1-.57.48,3.35,3.35,0,0,1-.55.25c-.73.29-1.43.47-2,.67a11.88,11.88,0,0,0-1.39.52,1.94,1.94,0,0,0-.47.31,1.77,1.77,0,0,1,.43-.38,8.51,8.51,0,0,1,1.35-.66l2-.78c.17-.08.35-.15.51-.24a2,2,0,0,0,.37-.25l0-.08v0c0,.11,0,0,0,.05s0,0,0,0a.79.79,0,0,0-.19-.11,3.06,3.06,0,0,0-.56-.13,11.16,11.16,0,0,0-2.37-.1,3.29,3.29,0,0,0-1,.13,1.93,1.93,0,0,0-.51.76,11,11,0,0,0-.49,1.4Z" transform="translate(-96.18 -48.86)" fill="#fff"/><path d="M213.26,290.39s1-8.08,5-10.2a31.86,31.86,0,0,1,9-3.38S214.65,279.8,213.26,290.39Z" transform="translate(-96.18 -48.86)" fill="#fff"/><path d="M227.93,287.78s1.3-9.25,5.23-11.55a38.15,38.15,0,0,1,10.57-3.7S231.58,275.74,227.93,287.78Z" transform="translate(-96.18 -48.86)" fill="#fff"/><path d="M242.87,286.53s-.16-9.21,1.64-10.32a36.42,36.42,0,0,1,6.67-3.23A15.19,15.19,0,0,0,242.87,286.53Z" transform="translate(-96.18 -48.86)" fill="#fff"/><path d="M344.62,235.6s10-19.93,11.29-29.9,39.2-51.15,61.79-57.8c0,0-47.17,31.89-55.15,55.14S347.27,234.27,344.62,235.6Z" transform="translate(-96.18 -48.86)" fill="#fff"/><path d="M138.87,170.27s51.59,32.44,60.09,52.86,20.74,28.2,26.81,32.18c0,0-12.51-4.78-21.06-15.3-4.6-5.65-9.45-16.84-14.59-24C185.91,210.13,138.87,170.27,138.87,170.27Z" transform="translate(-96.18 -48.86)" fill="#fff"/><path d="M262.83,221.67s-4.66-10.61-6.89-10.29-4.08,2.35-4.76,7.57c0,0,2.24-6.68,4.39-6.16C256.75,213.07,261.58,219.05,262.83,221.67Z" transform="translate(-96.18 -48.86)" fill="#fff"/><path d="M249.86,219.05s-3.59-8.82-4.29-10.82-1.69-3.28-3.47-3.59a2.75,2.75,0,0,0-2.71,1.24s2.39-.65,3.59.65S248.63,217.79,249.86,219.05Z" transform="translate(-96.18 -48.86)" fill="#fff"/><path d="M239,205s-.59-8-1.56-9.91-3-4.05-4.55-4.15a14.47,14.47,0,0,1,3.87,5.6C237.69,199.61,239,205,239,205Z" transform="translate(-96.18 -48.86)" fill="#fff"/><path d="M239,195.81s-2.31-3.6,0-12.82,5.54-17.37,8.69-20,8.29-3.51,14.07-.32a14.68,14.68,0,0,0-10.54-2.48c-6.07,1-9.4,10.11-10.51,13.32S234.42,191.13,239,195.81Z" transform="translate(-96.18 -48.86)" fill="#fff"/><path d="M232.07,188.7s-1.71-7-1.5-8.1c.29-1.48,1.06-2,1.92-.13,0,0-1.26-1.1-1.34.81S231.94,187.18,232.07,188.7Z" transform="translate(-96.18 -48.86)" fill="#fff"/><path d="M232.85,179.81s-1.15-8.58.12-9.81,3.54.75,5.2,5.25c0,0-2.8-5-4.47-5S232.85,179.81,232.85,179.81Z" transform="translate(-96.18 -48.86)" fill="#fff"/><path d="M238.17,173.87s-1.61-9.17-1-11.81,1.59-4.86,3.79-2.41c0,0-2-1-2.5.37S236.94,164,238.17,173.87Z" transform="translate(-96.18 -48.86)" fill="#fff"/><path d="M241.16,158.59a31.11,31.11,0,0,1,1.16-4.74c.55-1.26,1.68-2.68,3.55-.38C245.87,153.47,243.07,149.73,241.16,158.59Z" transform="translate(-96.18 -48.86)" fill="#fff"/><path d="M246,152.58s1.16-2,2.54-2a3.71,3.71,0,0,1,3.41,3.13s-1.5-2.65-3.32-2.64A3,3,0,0,0,246,152.58Z" transform="translate(-96.18 -48.86)" fill="#fff"/><path d="M252.69,153s1.4-1.4,2.35-.64,1.89,2.91,2.44,5.1c0,0-1.68-4.22-2.79-4.72A1.72,1.72,0,0,0,252.69,153Z" transform="translate(-96.18 -48.86)" fill="#fff"/><path d="M258,157.13a1.13,1.13,0,0,1,2,.16,19.23,19.23,0,0,1,1.59,4.69s-1.3-3.75-2.13-4.59C258.86,156.78,258.57,156.88,258,157.13Z" transform="translate(-96.18 -48.86)" fill="#fff"/><path d="M230,242.29s8.38,12.29,18,14.46,19.31,1.88,23.8,3.88,11.93,7.75,17.14,9,15.8,2.58,19.32,3.65,14,4.8,16.77,4.65a9.19,9.19,0,0,0,5.13-2.37,6.6,6.6,0,0,1-6.46,2.81c-4.41-.59-13.58-4.2-16.06-4.72s-15.95-2.8-18.7-3.47-6.8-3-11.61-5.78-8.21-4.75-16-5.07S239.4,258.36,230,242.29Z" transform="translate(-96.18 -48.86)" fill="#fff"/><path d="M255.35,210.35s-1.77-15.77,5-17.84C260.3,192.51,254.92,194.46,255.35,210.35Z" transform="translate(-96.18 -48.86)" fill="#fff"/><path d="M263.59,221.67s-5.83-27.24-2.42-30.76,6-1.29,9.33.84c0,0-5.87-3.61-7.92-1.1S260.59,202.37,263.59,221.67Z" transform="translate(-96.18 -48.86)" fill="#fff"/><path d="M319.15,229.06l1.89.6c1.19.41,2.91,1,4.93,1.71,1,.38,2.11.79,3.26,1.26a29.53,29.53,0,0,1,3.59,1.63,26.17,26.17,0,0,1,3.58,2.22,12.45,12.45,0,0,1,3,3.28c.19.33.4.64.56,1l.45,1a14.32,14.32,0,0,1,.69,2.1,19.83,19.83,0,0,1,.54,4.21,11.23,11.23,0,0,1,0,2c-.06.66-.07,1.3-.16,1.92-.21,1.23-.34,2.41-.6,3.46s-.5,2-.72,2.87-.52,1.57-.71,2.17c-.42,1.19-.65,1.87-.65,1.87l.46-1.93c.15-.61.35-1.35.54-2.2s.32-1.83.53-2.88.27-2.22.43-3.43c0-.61,0-1.24.06-1.88l0-1c0-.32,0-.65-.05-1a19.24,19.24,0,0,0-.59-4,12.13,12.13,0,0,0-.67-2l-.43-.95c-.16-.3-.36-.59-.53-.89a11.62,11.62,0,0,0-2.72-3.08,25.18,25.18,0,0,0-3.44-2.21c-1.13-.64-2.32-1.19-3.43-1.71s-2.19-1-3.18-1.4Z" transform="translate(-96.18 -48.86)" fill="#fff"/><path d="M274.39,192.37a7.39,7.39,0,0,0,.46-.72c.28-.47.62-1.17,1-2l1.39-2.87.19-.4c.09-.18.15-.27.23-.42a4.61,4.61,0,0,1,.51-.8,4.24,4.24,0,0,1,.7-.77,2.69,2.69,0,0,1,.41-.33l.47-.27a3,3,0,0,1,2.16-.14,3.79,3.79,0,0,1,1.67,1.13,4,4,0,0,1,.57.74,4.71,4.71,0,0,1,.42.76,7.56,7.56,0,0,1,.54,1.47,8.94,8.94,0,0,1,.22,1.29,7.89,7.89,0,0,1,.07,1c0,.56,0,.87,0,.87s-.07-.31-.18-.85a9.33,9.33,0,0,0-.24-.94c-.09-.37-.26-.76-.41-1.19-.07-.21-.19-.42-.29-.64a5.37,5.37,0,0,0-.36-.66,3.84,3.84,0,0,0-.44-.64,4.22,4.22,0,0,0-.52-.6,3.33,3.33,0,0,0-1.32-.82,2,2,0,0,0-1.46.13,2.49,2.49,0,0,0-.66.43,3.49,3.49,0,0,0-.56.59,5,5,0,0,0-.49.72c-.08.12-.18.28-.22.36l-.22.38c-.57,1-1.15,2-1.68,2.75a20,20,0,0,1-1.37,1.83A4.18,4.18,0,0,1,274.39,192.37Z" transform="translate(-96.18 -48.86)" fill="#fff"/><path d="M297.62,250.23a16.56,16.56,0,0,1,1.81-.75c.6-.19,1.31-.45,2.16-.65l1.35-.34,1.52-.26c.53-.1,1.09-.15,1.66-.2s1.18-.14,1.79-.15a28.32,28.32,0,0,1,3.89.06c.67.07,1.36.08,2,.2l2.07.36A15.06,15.06,0,0,1,318,249l2.08.56c1.34.52,2.69,1,4,1.6s2.51,1.26,3.68,1.93,2.21,1.45,3.23,2.14,1.86,1.5,2.7,2.17l1.18,1c.37.32.67.67,1,1l1.58,1.61,1.35,1.41-1.49-1.27-1.68-1.48a25.28,25.28,0,0,0-2.28-1.79c-.86-.62-1.75-1.34-2.76-2s-2.13-1.28-3.25-2-2.39-1.21-3.62-1.83-2.6-1-3.91-1.5l-2-.58a14.53,14.53,0,0,0-2-.5l-2-.38c-.66-.13-1.33-.15-2-.23-1.3-.16-2.58-.15-3.79-.2-.6,0-1.19.05-1.76.06s-1.12.05-1.64.13L303,249l-1.35.23c-.85.14-1.58.33-2.18.48s-1.07.29-1.38.4Z" transform="translate(-96.18 -48.86)" fill="#fff"/><path d="M297.62,250.23a4.4,4.4,0,0,0-.24,1.83,6.15,6.15,0,0,0,.45,2,10.24,10.24,0,0,0,1.37,2.33,19.64,19.64,0,0,0,5.22,4.37c2.17,1.33,4.49,2.73,6.84,4.1l6.89,4c2.21,1.26,4.26,2.47,6,3.46s3.26,1.83,4.32,2.38,1.66.84,1.66.84-.65-.2-1.75-.67-2.66-1.15-4.49-2.06-4-2-6.21-3.19-4.62-2.55-7-3.92-4.68-2.81-6.81-4.21a19.17,19.17,0,0,1-5.19-4.78,7.73,7.73,0,0,1-1.57-4.71,4.87,4.87,0,0,1,.25-1.38A3.94,3.94,0,0,1,297.62,250.23Z" transform="translate(-96.18 -48.86)" fill="#fff"/><path d="M313.73,266.92l8.49,2,4.11,1c1.46.32,3,.67,4.59.93a4.92,4.92,0,0,0,1.11.09,1,1,0,0,0,.26-.05.56.56,0,0,0,.17-.06c.07-.07,0,0,0-.07a2.22,2.22,0,0,0-.57-.78,8.67,8.67,0,0,0-.94-.76l-4.38-2.79-8.5-5.75c-2.71-1.84-5.19-3.63-7.32-5.15s-3.88-2.84-5.1-3.76-1.86-1.52-1.86-1.52.7.52,2,1.36l5.29,3.46,7.49,4.89,8.57,5.63,4.37,2.87a8.41,8.41,0,0,1,1,.87,2.74,2.74,0,0,1,.82,1.29.93.93,0,0,1-.09.58,1,1,0,0,1-.39.4,2,2,0,0,1-.78.21,5.71,5.71,0,0,1-1.34-.1c-1.65-.28-3.17-.71-4.63-1.08l-4.08-1.13c-2.53-.71-4.61-1.38-6.07-1.83Z" transform="translate(-96.18 -48.86)" fill="#fff"/><path d="M288.34,192.37a.8.8,0,0,0,.22-.1,3.58,3.58,0,0,0,.52-.43,8.06,8.06,0,0,0,1.38-1.94c.24-.43.48-.91.71-1.43a16.54,16.54,0,0,1,.8-1.66,8.12,8.12,0,0,1,1.2-1.68,2.83,2.83,0,0,1,2.15-1,2,2,0,0,1,1.17.68,3.68,3.68,0,0,1,.55,1,7.14,7.14,0,0,1,.27,1c.06.35.11.68.15,1,.12,1.3.08,2.47.12,3.47a11.23,11.23,0,0,0,.28,2.38,5,5,0,0,0,.19.65l.07.24-.12-.21a3.43,3.43,0,0,1-.32-.62,9.32,9.32,0,0,1-.68-2.39c-.17-1-.23-2.2-.42-3.4q-.07-.47-.18-.9c-.08-.3-.16-.63-.26-.89a2.75,2.75,0,0,0-.4-.72,1,1,0,0,0-.54-.32,1.9,1.9,0,0,0-1.35.69,8.12,8.12,0,0,0-1.12,1.43c-.33.5-.61,1-.9,1.56a14.08,14.08,0,0,1-.89,1.4A7.36,7.36,0,0,1,289.2,192,2,2,0,0,1,288.34,192.37Z" transform="translate(-96.18 -48.86)" fill="#fff"/><path d="M318,212.68a7,7,0,0,1,.71-.25,18.66,18.66,0,0,1,1.94-.5,8.14,8.14,0,0,1,1.38-.14l.4,0,.25.05.17.06a2,2,0,0,1,.79.58,2.12,2.12,0,0,1,.38,1.88,3.68,3.68,0,0,1-.92,1.61c-.42.44-.81.77-1.22,1.14s-.81.7-1.19,1L318.6,220a19.3,19.3,0,0,0-1.44,1.34,5.84,5.84,0,0,0-.49.56l.08-.18a4.56,4.56,0,0,1,.25-.5,13.1,13.1,0,0,1,1.19-1.62c.53-.64,1.2-1.33,1.93-2.05.37-.36.75-.74,1.14-1.1s.81-.75,1.14-1.1c.69-.7,1-1.68.57-2.29a1.24,1.24,0,0,0-.39-.34l-.16-.08-.11,0a2.65,2.65,0,0,0-.3-.06,10.87,10.87,0,0,0-1.27,0c-.8,0-1.49.07-2,.12Z" transform="translate(-96.18 -48.86)" fill="#fff"/><path d="M300.43,195.23l.69-.48c.44-.3,1.05-.74,1.76-1.29s1.44-1.25,2.34-2a6.09,6.09,0,0,1,1.6-1,1.68,1.68,0,0,1,1.22,0,1.33,1.33,0,0,1,.35.2l.17.16a3.46,3.46,0,0,1,.22.31l.12.26a5.78,5.78,0,0,1,.27,2,14.67,14.67,0,0,1-.12,1.79c-.13,1.15-.34,2.18-.48,3.07a12.05,12.05,0,0,0-.19,2.15,4.12,4.12,0,0,0,.1.82l-.09-.2a3,3,0,0,1-.2-.59,9,9,0,0,1-.19-2.23c0-.92.12-2,.18-3.1,0-.55,0-1.13,0-1.7a5.27,5.27,0,0,0-.24-1.6l-.06-.16s0,0,0-.06a1.05,1.05,0,0,0-.15-.15c.06,0,0,0,0,0a.81.81,0,0,0-.54,0,5.6,5.6,0,0,0-1.38.8,23.6,23.6,0,0,1-2.56,1.79,20.6,20.6,0,0,1-2,1C300.72,195.13,300.43,195.23,300.43,195.23Z" transform="translate(-96.18 -48.86)" fill="#fff"/><path d="M310.7,203.55a3.8,3.8,0,0,0,.88-.09,7.6,7.6,0,0,0,2.13-.82c.43-.22.84-.5,1.31-.8a11.33,11.33,0,0,1,1.55-.92,5.4,5.4,0,0,1,1.93-.6,1.76,1.76,0,0,1,1.25.27,1.55,1.55,0,0,1,.58,1.24,9,9,0,0,1-.44,2c-.17.62-.39,1.22-.59,1.8a28.32,28.32,0,0,1-1.29,3.09,15.68,15.68,0,0,1-1.19,2.06c-.17.23-.31.41-.41.52l-.16.18s.17-.29.4-.8a23.21,23.21,0,0,0,.83-2.18c.32-.91.65-2,1-3.14l.5-1.79a8.88,8.88,0,0,0,.37-1.75c0-.24-.06-.39-.16-.46a.84.84,0,0,0-.6-.11,5.64,5.64,0,0,0-1.64.44c-.54.24-1,.48-1.53.75a10.53,10.53,0,0,1-1.45.69,6.82,6.82,0,0,1-2.35.49A2.81,2.81,0,0,1,310.7,203.55Z" transform="translate(-96.18 -48.86)" fill="#fff"/><path d="M417,359.36a2.15,2.15,0,0,1,0-.67,2.79,2.79,0,0,1,.68-1.32,2.18,2.18,0,0,1,.63-.51,2.45,2.45,0,0,1,.65-.26,1.62,1.62,0,0,1,.48-.07h.19l-.16.1a3.16,3.16,0,0,0-.4.23,2.65,2.65,0,0,0-.51.36,3.3,3.3,0,0,0-.51.48,5.7,5.7,0,0,0-.45.55c-.12.2-.25.37-.33.54C417.15,359.12,417,359.36,417,359.36Z" transform="translate(-96.18 -48.86)" fill="#fff"/><path d="M356.68,379.57a1.83,1.83,0,0,1,0-.67,2.89,2.89,0,0,1,.67-1.33,3,3,0,0,1,.63-.51,2.65,2.65,0,0,1,.66-.26,1.89,1.89,0,0,1,.48-.06h.18a.83.83,0,0,1-.16.09l-.4.23a4.6,4.6,0,0,0-.51.37,4.55,4.55,0,0,0-.51.48,5.58,5.58,0,0,0-.44.55,5.84,5.84,0,0,0-.34.54C356.79,379.33,356.68,379.57,356.68,379.57Z" transform="translate(-96.18 -48.86)" fill="#fff"/><path d="M460.37,282.92a3.1,3.1,0,0,1-.27-.82,4.14,4.14,0,0,1,.07-1.9,3.39,3.39,0,0,1,.42-.95,2.94,2.94,0,0,1,.57-.7,2.25,2.25,0,0,1,.49-.38l.21-.12s-.23.27-.49.68a4.51,4.51,0,0,0-.4.73,5.59,5.59,0,0,0-.32.87,6,6,0,0,0-.19.92c0,.3-.08.58-.08.83C460.36,282.58,460.37,282.92,460.37,282.92Z" transform="translate(-96.18 -48.86)" fill="#fff"/><path d="M174,375.91a1.78,1.78,0,0,1,.48.22,2.91,2.91,0,0,1,.83.79,3.18,3.18,0,0,1,.31.53,3.26,3.26,0,0,1,.16.51,1.65,1.65,0,0,1,.06.52s-.14-.17-.31-.41l-.63-.86-.61-.88Z" transform="translate(-96.18 -48.86)" fill="#fff"/><path d="M136.16,308.69a2.25,2.25,0,0,1,.48.25,3,3,0,0,1,.84.83,2.37,2.37,0,0,1,.41,1.13,1.41,1.41,0,0,1-.08.55l-.05-.14c0-.09-.1-.21-.15-.34a8.66,8.66,0,0,0-.54-.92l-.62-.91C136.27,308.88,136.16,308.69,136.16,308.69Z" transform="translate(-96.18 -48.86)" fill="#fff"/><path d="M118.16,155.89a3.57,3.57,0,0,0,.23-.92,13.35,13.35,0,0,0,.07-2.07c0-.75-.07-1.52-.09-2.09s0-1,0-1a8.77,8.77,0,0,1,.3.93,9.91,9.91,0,0,1,.2,1,10.67,10.67,0,0,1,.11,1.15,8.83,8.83,0,0,1-.06,1.16,6,6,0,0,1-.24,1,3,3,0,0,1-.32.65A1,1,0,0,1,118.16,155.89Z" transform="translate(-96.18 -48.86)" fill="#fff"/><path d="M442.44,115.43a3.62,3.62,0,0,0,.33.89,14,14,0,0,0,1.11,1.74c.44.62.91,1.22,1.25,1.69s.57.79.57.79a8.69,8.69,0,0,1-.77-.6,10.74,10.74,0,0,1-1.46-1.58,8,8,0,0,1-.6-1,4.68,4.68,0,0,1-.36-1,2.3,2.3,0,0,1-.1-.71A.94.94,0,0,1,442.44,115.43Z" transform="translate(-96.18 -48.86)" fill="#fff"/><path d="M272,223a1.84,1.84,0,0,1,.38,0l1.1.14c.93.13,2.28.34,3.87.68s3.44.78,5.39,1.35,4,1.24,6.06,2,4,1.62,5.88,2.48,3.51,1.76,4.93,2.57,2.54,1.56,3.33,2.08l1.23.84s-1.83-1.17-4.7-2.67a89.31,89.31,0,0,0-10.85-4.83c-2-.77-4.06-1.46-6-2.05s-3.76-1.1-5.34-1.48-2.89-.7-3.82-.88l-1.08-.2A2.18,2.18,0,0,0,272,223Z" transform="translate(-96.18 -48.86)" fill="#fff"/></g><g id="_2007_gepfadet" data-name="2007 gepfadet"><path d="M250.09,480.82v-7.29l7.13-7.74h-7.13v-2.05c0-5,3.77-8.56,9-8.56s8.89,3.49,8.89,8.5c0,3-1.39,4.75-3.2,6.66l-1.83,1.94h5v8.54Z" transform="translate(-96.18 -48.86)" fill="#ef7d00"/><path d="M259,457.23c4,0,6.84,2.43,6.84,6.45,0,2.25-.93,3.45-2.64,5.25l-5.1,5.4h7.74v4.44H252.14v-4.44l7.74-8.4a3,3,0,0,0,1.08-2.28,1.8,1.8,0,0,0-1.92-2,1.84,1.84,0,0,0-2,2.07h-4.92c0-4.2,3.18-6.51,6.9-6.51m0-4.1c-6.37,0-11,4.46-11,10.61v4.1h4.51l-3.42,3.71L248,472.73v10.14H270V470.23h-2.41a9.85,9.85,0,0,0,2.41-6.55c0-6.12-4.6-10.55-10.94-10.55Z" transform="translate(-96.18 -48.86)" fill="#fff"/><path d="M275.27,481c-4.43,0-8.92-3-8.92-8.71v-8.4c0-5.72,4.49-8.71,8.92-8.71s8.92,3,8.92,8.71v8.4C284.19,478,279.71,481,275.27,481Z" transform="translate(-96.18 -48.86)" fill="#ef7d00"/><path d="M275.27,457.23c3.54,0,6.87,2.25,6.87,6.66v8.4c0,4.41-3.33,6.66-6.87,6.66s-6.87-2.25-6.87-6.66v-8.4c0-4.41,3.33-6.66,6.87-6.66m0,17.28a1.93,1.93,0,0,0,2-2.19v-8.43a2,2,0,1,0-3.9,0v8.43a1.93,1.93,0,0,0,1.95,2.19m0-21.38c-6.35,0-11,4.52-11,10.76v8.4c0,6.23,4.62,10.76,11,10.76s11-4.53,11-10.76v-8.4c0-6.24-4.61-10.76-11-10.76Z" transform="translate(-96.18 -48.86)" fill="#fff"/><path d="M291.65,481c-4.43,0-8.92-3-8.92-8.71v-8.4c0-5.72,4.49-8.71,8.92-8.71s8.92,3,8.92,8.71v8.4C300.57,478,296.09,481,291.65,481Z" transform="translate(-96.18 -48.86)" fill="#ef7d00"/><path d="M291.65,457.23c3.54,0,6.87,2.25,6.87,6.66v8.4c0,4.41-3.33,6.66-6.87,6.66s-6.87-2.25-6.87-6.66v-8.4c0-4.41,3.33-6.66,6.87-6.66m0,17.28a1.93,1.93,0,0,0,2-2.19v-8.43a2,2,0,1,0-3.9,0v8.43a1.93,1.93,0,0,0,1.95,2.19m0-21.38c-6.35,0-11,4.52-11,10.76v8.4c0,6.23,4.62,10.76,11,10.76s11-4.53,11-10.76v-8.4c0-6.24-4.61-10.76-11-10.76Z" transform="translate(-96.18 -48.86)" fill="#fff"/><polygon points="204.11 431.95 209.44 418.39 202.49 418.39 202.49 406.49 221.22 406.49 221.22 413.37 213.91 431.95 204.11 431.95" fill="#ef7d00"/><path d="M315.35,457.41v4.44l-6.66,16.92h-5.4L310,461.85h-4.56v3.36h-4.68v-7.8h14.64m4.1-4.1H296.61v16h6l-3.13,7.95-2.21,5.61h14.22l1-2.6,6.66-16.92.28-.73v-9.31Z" transform="translate(-96.18 -48.86)" fill="#fff"/></g><g id="Schrift"><text transform="translate(154.38 429.9)" font-size="30" fill="#ef7d00" font-family="DIN-Black" font-weight="800" letter-spacing="-0.01em">2007</text><text transform="translate(130.86 90.27) rotate(-3.75) scale(1 1.1)" font-size="37.47" fill="#fff" font-family="DIN-Black" font-weight="800">B</text><text transform="matrix(1, -0.03, 0.03, 1.1, 154.66, 88.7)" font-size="37.47" fill="#fff" font-family="DIN-Black" font-weight="800">A</text><text transform="translate(178.51 87.99) rotate(0.26) scale(1 1.1)" font-size="37.47" fill="#fff" font-family="DIN-Black" font-weight="800">S</text><text transform="translate(200.14 88.06) rotate(2) scale(1 1.1)" font-size="37.47" fill="#fff" font-family="DIN-Black" font-weight="800">E</text><text transform="translate(222.3 88.83) rotate(3.87) scale(1 1.1)" font-size="37.47" fill="#fff" font-family="DIN-Black" font-weight="800">L</text><text transform="translate(19.05 74.36) rotate(-16.85) scale(1 1.1)" font-size="37.47" fill="#fff" font-family="DIN-Black" font-weight="800">F</text><text transform="translate(39.65 68.1) rotate(-13.31) scale(1 1.1)" font-size="37.47" fill="#fff" font-family="DIN-Black" font-weight="800">U</text><text transform="translate(63.03 62.6) rotate(-10.58) scale(1 1.1)" font-size="37.47" fill="#fff" font-family="DIN-Black" font-weight="800">T</text><text transform="translate(83.94 58.69) rotate(-8.31) scale(1 1.1)" font-size="37.47" fill="#fff" font-family="DIN-Black" font-weight="800">S</text><text transform="translate(105.29 55.54) rotate(-6.09) scale(1 1.1)" font-size="37.47" fill="#fff" font-family="DIN-Black" font-weight="800">A</text><text transform="matrix(1, -0.07, 0.08, 1.1, 129.01, 53.03)" font-size="37.47" fill="#fff" font-family="DIN-Black" font-weight="800">L</text><text transform="translate(150.02 51.61) rotate(-2.78) scale(1 1.1)" font-size="37.47" fill="#fff" font-family="DIN-Black" font-weight="800"> </text><text transform="matrix(1, -0.03, 0.03, 1.1, 157.78, 51.14)" font-size="37.47" fill="#fff" font-family="DIN-Black" font-weight="800">O</text><text transform="translate(181.18 50.55) rotate(0.37) scale(1 1.1)" font-size="37.47" fill="#fff" font-family="DIN-Black" font-weight="800">L</text><text transform="matrix(1, 0.04, -0.04, 1.1, 202.16, 50.67)" font-size="37.47" fill="#fff" font-family="DIN-Black" font-weight="800">Y</text><text transform="translate(224.18 51.41) rotate(4.42) scale(1 1.1)" font-size="37.47" fill="#fff" font-family="DIN-Black" font-weight="800">M</text><text transform="translate(253.69 53.74) rotate(6.87) scale(1 1.1)" font-size="37.47" fill="#fff" font-family="DIN-Black" font-weight="800">P</text><text transform="translate(276.44 56.56) rotate(8.58) scale(1 1.1)" font-size="37.47" fill="#fff" font-family="DIN-Black" font-weight="800">I</text><text transform="translate(287.67 58.14) rotate(10.44) scale(1 1.1)" font-size="37.47" fill="#fff" font-family="DIN-Black" font-weight="800">Q</text><text transform="translate(310.56 62.31) rotate(13.29) scale(1 1.1)" font-size="37.47" fill="#fff" font-family="DIN-Black" font-weight="800">U</text><text transform="matrix(0.96, 0.29, -0.32, 1.05, 333.85, 67.77)" font-size="37.47" fill="#fff" font-family="DIN-Black" font-weight="800">E</text></g></svg>