<svg id="clock" xmlns="http://www.w3.org/2000/svg" width="20" height="20" viewBox="0 0 20 20">
  <path id="Pfad_7263" data-name="Pfad 7263" d="M10,20A10,10,0,1,1,20,10,10.011,10.011,0,0,1,10,20ZM10,1.25A8.75,8.75,0,1,0,18.75,10,8.76,8.76,0,0,0,10,1.25Zm0,0" fill="#5d5d5d"/>
  <path id="Pfad_7264" data-name="Pfad 7264" d="M245,112.79a.62.62,0,0,1-.442-.183l-4.375-4.375a.625.625,0,0,1-.183-.442v-5.833a.625.625,0,1,1,1.25,0v5.574l4.192,4.192A.625.625,0,0,1,245,112.79Zm0,0" transform="translate(-230.625 -97.374)" fill="#5d5d5d"/>
</svg>
